PathFileType	4	(X/Y/Z)	C:/Users/beibeiliu/ov580/test_trc/User2\sequence.11_training_dense_right.trc
DataRate	CameraRate	NumFrames	NumMarkers	Units	OrigDataRate	OrigDataStartFrame	OrigNumFrames
120	120	10	19	mm	120	92	366
Frame#	Time	ThumbCMC			ThumbMCP			ThumbIP			ThumbTip			IndexMCP			IndexPIP			IndexTip			MiddleMCP			MiddlePIP			MiddleTip			RingMCP			RingPIP			RingTip			PinkyMCP			PinkyPIP			PinkyTip			BackHand1			BackHand2			BackHand3	
		X0	Y0	Z0	X1	Y1	Z1	X2	Y2	Z2	X3	Y3	Z3	X4	Y4	Z4	X5	Y5	Z5	X6	Y6	Z6	X7	Y7	Z7	X8	Y8	Z8	X9	Y9	Z9	X10	Y10	Z10	X11	Y11	Z11	X12	Y12	Z12	X13	Y13	Z13	X14	Y14	Z14	X15	Y15	Z15	X16	Y16	Z16	X17	Y17	Z17	X18	Y18	Z18	
91	0.758333	73.6719	52.307	108.106	40.7846	50.7248	91.7691	18.6333	45.1999	72.194	3.21695	40.7634	48.2124	85.5682	86.5643	32.2438	72.7818	90.3121	0.892741	59.8202	73.871	-21.8784	111.621	77.9536	20.3695	104.742	80.2451	-17.8182	92.3492	66.4041	-45.5552	126.761	60.7346	17.0895	124.262	57.8798	-15.8767	107.961	49.8873	-38.6063	143.229	30.8213	26.9616	140.481	27.6758	-5.23395	131.687	21.3343	-26.6733	135.768	51.5703	70.7965	144.145	44.9363	105.087	110.374	67.5132	98.1571	
92	0.766667	72.2982	62.9523	107.335	46.4831	58.4093	90.332	18.7687	57.7721	69.952	12.0155	53.6946	43.4516	85.3826	106.77	39.3395	75.3371	114.63	7.47755	65.2265	99.0015	-18.108	115.623	100.619	27.1638	109.45	108.19	-8.75586	105.017	97.7109	-39.6078	131.717	83.0234	22.5121	133.777	85.442	-5.55092	120.988	77.842	-39.9791	149.963	55.2361	26.1877	149.984	55.6415	1.77553	144.532	52.5316	-27.5668	139.365	66.745	75.8507	146.914	55.9939	108.802	111.272	77.7093	101.008	
93	0.775	74.0478	70.3252	106.198	44.869	66.5533	89.6133	20.8468	69.6366	62.3499	10.1799	66.1248	38.2799	90.2089	117.644	41.325	79.572	128.499	12.4984	70.9564	112.845	-18.0053	118.374	112.262	31.8298	119.203	120.784	-7.95208	108.533	114.652	-39.4163	137.719	94.1276	23.9159	139.279	98.5466	-3.03639	128.926	97.9427	-31.9534	152.167	65.5838	28.8181	157.814	66.7411	1.48016	153.01	65.7468	-26.6493	143.065	74.6876	74.963	143.319	62.5528	111.065	113.583	88.9076	99.7949	
94	0.783333	74.1319	68.586	104.945	45.4627	66.3378	86.6066	19.9456	69.7939	58.3245	15.6503	66.6144	29.483	93.4103	118.992	36.7718	83.582	129.239	6.36412	69.6387	117.79	-18.6074	121.293	114.649	28.6076	120.231	123.768	-8.5335	111.41	116.928	-41.8789	141.613	95.9629	23.4529	144.086	99.985	-4.44518	136.942	99.1468	-34.9192	150.433	67.3199	30.2175	158.063	69.8651	0.620299	156.206	67.6496	-30.0059	141.698	74.4101	73.8571	144.678	64.6495	103.605	111.966	88.8805	101.955	
95	0.791667	67.4965	64.9582	98.8066	40.4029	60.7183	80.8236	17.1381	61.1649	50.1662	16.4655	55.894	25.7322	87.4516	110.839	33.5732	80.5526	119.58	0.403459	67.4744	105.941	-24.6157	120.15	103.709	23.6032	117.226	115.158	-12.807	110.824	105.7	-46.1522	136.7	87.8766	21.0974	140.336	92.5464	-8.77874	133.45	88.7103	-40.1853	149.736	60.7277	25.6045	158.285	59.3295	-5.07084	155.119	54.9749	-30.3659	136.935	71.3652	71.5998	141.387	61.5139	101.53	110.504	83.4729	91.5155	
96	0.8	61.5569	55.1984	92.4747	39.2697	46.8073	70.6807	15.7123	42.1409	48.0742	10.7018	35.0142	20.4203	79.7633	94.3378	22.4335	71.1144	100.256	-7.45112	65.3413	81.8445	-34.8467	110.649	90.5823	9.90971	112.979	92.6488	-24.7362	103.013	82.2576	-54.1401	133.028	68.3557	12.865	134.88	71.2452	-21.9463	123.463	65.4344	-50.4094	148.53	41.5586	22.624	151.616	41.6065	-10.6524	153.176	33.6088	-33.75	130.046	58.7439	65.9274	133.715	54.9806	95.3645	103.199	72.7918	87.6049	
97	0.808333	55.8574	39.38	87.0048	35.1717	28.0258	68.8937	7.46063	19.2279	48.5989	5.55158	6.93558	20.8767	75.332	67.7597	10.949	65.1732	67.666	-20.1926	56.2974	46.1789	-43.1148	102.944	65.0955	-0.774283	101.422	62.6975	-34.3443	94.0328	42.6941	-64.774	126.533	45.0255	1.01638	130.379	40.676	-26.4438	121.633	27.4288	-55.2748	140.408	21.6133	17.0324	150.818	11.767	-13.715	148.361	0.00569798	-38.6475	126.484	41.8982	55.9808	130.236	44.5726	87.9864	95.8198	59.2246	76.1355	
98	0.816667	52.3874	23.9916	87.2996	29.2965	7.73928	73.3052	7.2727	-6.60455	51.5125	-2.16014	-23.1721	27.1856	68.0505	36.8114	3.21598	59.2413	30.5079	-27.3161	45.4137	5.93937	-46.8044	97.5491	31.9563	-7.86752	94.2104	21.4356	-43.5151	86.0226	0.520994	-64.874	119.713	15.3888	0.217219	121.918	7.24013	-28.8641	114.882	-9.78941	-53.8915	138.898	-4.61161	19.3977	141.95	-15.1732	-13.6471	141.028	-32.492	-33.102	118.565	25.2854	53.7181	126.507	32.1146	85.3859	88.0498	42.9966	66.7329	
99	0.825	48.0923	10.2363	86.6766	27.4203	-10.5746	76.8036	2.71796	-29.8524	57.7708	-6.93244	-49.6059	39.6999	56.7487	8.33469	4.12677	47.9832	-1.85694	-23.5161	41.0739	-31.6752	-41.6815	86.0057	4.13569	-8.21511	85.8348	-11.9774	-37.9046	78.7425	-38.2615	-59.8009	112.019	-9.69151	-0.713751	116.163	-24.245	-27.2971	111.376	-44.6357	-48.6603	134.934	-24.4755	19.2884	140.814	-42.3338	-4.27025	138.033	-58.7912	-25.6402	114.5	8.56413	50.037	122.952	23.0923	81.0709	82.603	26.6992	65.7333	
100	0.833333	47.0476	0.831297	91.9418	21.8203	-19.3447	84.1531	0.341185	-41.2718	70.2463	-4.72597	-62.2168	50.521	54.8563	-8.31497	7.92413	43.2725	-21.6328	-20.3391	39.4629	-46.6811	-34.3878	82.6746	-13.3666	-2.12292	81.554	-31.5611	-33.1198	76.1738	-57.1376	-51.8438	107.607	-23.1602	5.84882	108.296	-38.8899	-21.3556	104.146	-63.7781	-43.7794	127.809	-35.8041	26.0988	132.134	-52.9108	3.53506	136.124	-74.2921	-14.9315	107.861	0.943533	55.1299	118.529	15.9491	82.0691	79.3151	18.9506	67.495	
